<?xml version="1.0" encoding="utf-8"?>
<!-- Generator: Adobe Illustrator 25.0.0, SVG Export Plug-In . SVG Version: 6.00 Build 0)  -->
<svg version="1.1" id="Layer_2" xmlns="http://www.w3.org/2000/svg" xmlns:xlink="http://www.w3.org/1999/xlink" x="0px" y="0px"
	 viewBox="0 0 1536.89 356.44" style="enable-background:new 0 0 1536.89 356.44;" xml:space="preserve">
<style type="text/css">
	.st0{fill:#FFFFFF;}
</style>
<g>
	<path class="st0" d="M309.07,33.81v13.05h27.38v0.01h36.35V33.81H309.07z M324.58,121.86v-0.03h-15.51v13.1h65.27v-13.07H324.58z
		 M324.58,75.56v-0.12h-15.51v13.34h15.51v-0.15h40.79V75.56H324.58z"/>
	<path class="st0" d="M496.39,112.68c-5.95,6.64-12.77,10.54-21.51,10.54c-18.24,0-30.33-14.89-30.33-39.13
		c0-23.87,12.09-38.58,30.1-38.58c8.17,0,14.49,3.35,19.63,8.62l8.74-9.71c-6.23-6.54-16.03-12.47-28.37-12.47
		c-26.55,0-46.1,19.78-46.1,52.56c0,33.28,19.79,52.27,44.8,52.27c13.47,0,23.82-5.31,31.78-14.69L496.39,112.68z"/>
	<path class="st0" d="M624.39,46.87V33.81H559.4v13.06h24.74v74.99H559.4v13.07h64.99v-13.07h-24.74V46.87H624.39z"/>
	<path class="st0" d="M733.5,80.19l-13.71-6.04c-8.91-3.45-17.64-6.66-17.64-15.44c0-8.27,7.16-13.2,17.8-13.2
		c10.32,0,17.67,3.35,24.43,9.02l8-9.9c-7.84-7.73-19.25-12.68-31.77-12.68c-19.96,0-34.15,11.92-34.15,27.68
		c0,14.89,11.33,22.37,21.66,26.44l14.26,6.26c10.02,4.23,17.41,6.98,17.41,16.86c0,8.14-7.11,14.03-19.91,14.03
		c-11,0-21.21-4.76-28.9-11.98l-9.1,10.68c9.51,9.23,22.64,14.86,37.15,14.86c22.93,0,36.63-13.24,36.63-29.48
		C755.66,92.53,746.18,85.13,733.5,80.19z"/>
	<path class="st0" d="M877.63,46.87V33.81h-64.98v13.06h24.74v74.99h-24.74v13.07h64.98v-13.07h-24.74V46.87H877.63z"/>
	<path class="st0" d="M996.82,33.81l-15.09,52.64c-3.25,11.66-5.76,21.51-9.29,33.07h-0.62c-3.53-11.56-5.89-21.41-9.3-33.07
		l-15.14-52.64h-16.56l31.91,101.12h18.31l31.66-101.12H996.82z"/>
	<path class="st0" d="M1068.8,33.81v12.98h27.32v0.08h36.41V33.81H1068.8z M1084.3,121.86v-0.1h-15.5v13.17h65.27v-13.07H1084.3z
		 M1084.3,75.56v-0.19h-15.5V88.7h15.5v-0.07h40.8V75.56H1084.3z"/>
</g>
<g>
	<path class="st0" d="M309.07,227.28v13.15h15.51v-0.08h48.22v-13.07H309.07z M336.45,315.33v0.06h-27.38v13.01h65.27v-13.07H336.45
		z M324.58,269.03V269h-15.51v13.34h15.51v-0.24h40.79v-13.07H324.58z"/>
	<path class="st0" d="M490.34,227.28l-15.09,52.64c-3.26,11.66-5.77,21.51-9.3,33.07h-0.62c-3.53-11.56-5.89-21.41-9.29-33.07
		l-15.15-52.64h-16.55l31.91,101.12h18.3l31.66-101.12H490.34z"/>
	<path class="st0" d="M562.31,227.28v13.15h15.51v-0.08h48.22v-13.07H562.31z M577.82,269.03V269h-15.51v13.34h15.51v-0.24h40.79
		v-13.07H577.82z M589.24,315.33v0.06h-26.93v13.01h65.28v-13.07H589.24z"/>
	<path class="st0" d="M707.17,315.33v-88.05h-15.38V328.4h64.06v-13.07H707.17z"/>
	<path class="st0" d="M845.14,225.42c-23.14,0-39.32,18.99-39.32,51.96c0,33.51,16.18,52.88,39.32,52.88
		c23.14,0,39.32-19.37,39.32-52.88C884.46,244.41,868.28,225.42,845.14,225.42z M845.14,316.7c-14.05,0-23.32-14.48-23.32-39.32
		c0-24.3,9.27-38.4,23.32-38.4s23.32,14.1,23.32,38.4C868.46,302.22,859.19,316.7,845.14,316.7z"/>
	<path class="st0" d="M971.99,227.28h-31.9V328.4h15.51v-38.59h16.39c22.01,0,38.02-10.03,38.02-32.07
		C1010.01,234.93,994.24,227.28,971.99,227.28z M970.5,277.35h-14.9v-37.61h14.9c16.04,0,24.11,4.53,24.11,18
		C994.61,271.09,986.78,277.35,970.5,277.35z"/>
	<path class="st0" d="M1116.31,227.28l-13.21,41.27l-4.41,15.74h-0.62l-4.53-15.74l-13.09-41.27h-17.85V328.4h13.83v-45.6
		c0-10.26-1.41-29.43-2.39-38.65h0.36l6.22,21.64l12.59,35.8h9.73l12.78-35.8l6.24-21.64h0.46c-0.73,9.22-2.39,28.39-2.39,38.65
		v45.6h14.14V227.28H1116.31z"/>
	<path class="st0" d="M1195.42,227.28v13.15h15.51v-0.08h48.22v-13.07H1195.42z M1223.25,315.33v0.06h-27.83v13.01h65.27v-13.07
		H1223.25z M1210.93,282.1h40.79v-13.07h-40.79V269h-15.51v13.34h15.51V282.1z"/>
	<path class="st0" d="M1371.15,227.28v48.12c0,10.97,1.46,23.09,2.07,33.27h-0.37l-9.44-21.29l-29.51-60.1h-16.57V328.4h14.77
		v-48.49c0-10.85-1.46-22.35-2.07-32.9h0.37l9.44,21.26l29.51,60.13h16.57V227.28H1371.15z"/>
	<path class="st0" d="M1437.85,227.28v13.07h32.64v88.05H1486v-88.05h32.65v-13.07H1437.85z"/>
</g>
<g id="Layer_3">
	<rect x="309" y="33.78" class="st0" width="65.57" height="13.08"/>
	<rect x="309" y="75.44" class="st0" width="65.57" height="13.34"/>
	<rect x="309" y="121.83" class="st0" width="65.57" height="13.08"/>
	<rect x="309" y="227.34" class="st0" width="65.57" height="13.08"/>
	<rect x="309" y="269" class="st0" width="65.57" height="13.34"/>
	<rect x="309" y="315.39" class="st0" width="65.57" height="13.08"/>
	<rect x="561.79" y="227.11" class="st0" width="65.57" height="13.31"/>
	<rect x="561.79" y="269" class="st0" width="65.57" height="13.34"/>
	<rect x="561.79" y="315.28" class="st0" width="65.57" height="13.2"/>
	<rect x="1195.8" y="227.34" class="st0" width="65.57" height="13.08"/>
	<rect x="1195.8" y="269" class="st0" width="65.57" height="13.08"/>
	<rect x="1195.8" y="315.39" class="st0" width="65.57" height="13.08"/>
	<rect x="1068.66" y="33.78" class="st0" width="65.57" height="13.08"/>
	<rect x="1068.67" y="75.36" class="st0" width="65.57" height="13.34"/>
	<rect x="1068.67" y="121.76" class="st0" width="65.57" height="13.08"/>
</g>
<g>
	<g>
		<path class="st0" d="M43.63,33.59h68.65c91.39,0,134.84,57.85,134.84,147.96c0,90.23-43.45,150.02-134.35,150.02H43.63V33.59z
			 M110.22,313.87c80.23,0,115.01-54.61,115.01-132.32c0-77.58-34.78-130.26-115.01-130.26H64.49v262.58H110.22z"/>
	</g>
</g>
</svg>
